<svg xmlns="http://www.w3.org/2000/svg" viewBox="0 0 512 512" fill="none">
  <rect width="512" height="512" rx="128" fill="url(#g)"/>
  <!-- S letterform -->
  <path d="M256 96c-60 0-108 38-108 86 0 38 28 60 66 76 32 14 44 24 44 38 0 16-16 28-38 28-28 0-50-16-62-34l-32 28c18 26 56 46 90 46 56 0 98-32 98-82 0-44-28-64-72-82-28-12-38-22-38-34 0-14 14-24 34-24 22 0 38 10 50 28l30-26c-18-26-48-48-62-48z" fill="white" opacity="0.95"/>
  <!-- EU stars ring -->
  <circle cx="128" cy="72" r="14" fill="#FBBF24"/>
  <circle cx="192" cy="48" r="14" fill="#FBBF24"/>
  <circle cx="256" cy="38" r="14" fill="#FBBF24"/>
  <circle cx="320" cy="48" r="14" fill="#FBBF24"/>
  <circle cx="384" cy="72" r="14" fill="#FBBF24"/>
  <!-- Bottom accent line -->
  <rect x="160" y="440" width="192" height="6" rx="3" fill="#FBBF24" opacity="0.6"/>
  <defs>
    <linearGradient id="g" x1="0" y1="0" x2="512" y2="512" gradientUnits="userSpaceOnUse">
      <stop offset="0%" stop-color="#1E40AF"/>
      <stop offset="50%" stop-color="#1E3A8A"/>
      <stop offset="100%" stop-color="#172554"/>
    </linearGradient>
  </defs>
</svg>
